<?xml version="1.0" encoding="utf-8"?>
<!-- Generator: Adobe Illustrator 16.0.0, SVG Export Plug-In . SVG Version: 6.00 Build 0)  -->
<!DOCTYPE svg PUBLIC "-//W3C//DTD SVG 1.1//EN" "http://www.w3.org/Graphics/SVG/1.1/DTD/svg11.dtd">
<svg version="1.1" xmlns="http://www.w3.org/2000/svg" xmlns:xlink="http://www.w3.org/1999/xlink" x="0px" y="0px" width="1000px"
	 height="1000px" viewBox="0 0 1000 1000" enable-background="new 0 0 1000 1000" xml:space="preserve">
<g id="Background">
</g>
<g id="Layer_1">
	<g id="OutsideBorder">
		<path fill="#CCCCCC" d="M999,1v998H1V1H999 M1000,0H0v1000h1000V0L1000,0z"/>
	</g>
	<g>
		<line fill="none" stroke="#EAECEE" stroke-width="400" stroke-miterlimit="10" x1="-400" y1="1400" x2="1400" y2="-400"/>
	</g>
	<g id="WhiteFmae" display="none">
		<path display="inline" fill="#EAECEE" d="M900,25c19.923,0,38.727,7.832,52.947,22.053S975,80.077,975,100v800
			c0,19.923-7.832,38.727-22.053,52.947S919.923,975,900,975H100c-19.923,0-38.727-7.832-52.947-22.053S25,919.923,25,900V100
			c0-19.923,7.832-38.727,22.053-52.947S80.077,25,100,25H900 M900,0H100C45,0,0,45,0,100v800c0,55,45,100,100,100h800
			c55,0,100-45,100-100V100C1000,45,955,0,900,0L900,0z"/>
	</g>
	<g>
		<path fill="#445466" d="M118.041,229.001c-3.981-11.444-8.21-24.381-12.688-38.812c-4.479-14.429-8.708-28.817-12.689-43.165
			c-3.98-14.344-7.548-27.903-10.697-40.678C78.813,93.577,76.492,83.128,75,75h32.343c0.995,7.961,2.488,17.209,4.479,27.74
			c1.99,10.535,4.186,21.396,6.593,32.592c2.402,11.196,4.976,22.228,7.712,33.089c2.736,10.865,5.43,20.611,8.086,29.233
			c2.65-8.458,5.306-18.119,7.961-28.984c2.651-10.861,5.139-21.894,7.464-33.089c2.321-11.195,4.479-22.1,6.468-32.716
			c1.99-10.612,3.647-19.903,4.976-27.864h32.095c-1.991,9.952-4.439,21.065-7.339,33.338c-2.904,12.276-6.22,25.17-9.952,38.687
			c-3.732,13.52-7.837,27.285-12.315,41.299c-4.478,14.018-9.124,27.577-13.932,40.677H118.041z"/>
		<path fill="#445466" d="M257.861,232.235c-9.952,0-18.287-1.368-25.004-4.105c-6.717-2.736-12.066-6.674-16.047-11.818
			c-3.981-5.139-6.803-11.358-8.459-18.659c-1.66-7.296-2.488-15.425-2.488-24.381V75h30.85v96.282
			c0,6.468,0.331,11.903,0.995,16.296c0.661,4.396,1.78,7.922,3.359,10.574c1.574,2.655,3.771,4.563,6.593,5.722
			c2.818,1.163,6.383,1.742,10.698,1.742c4.312,0,7.876-0.58,10.698-1.742c2.818-1.158,5.057-3.11,6.717-5.846
			c1.656-2.737,2.818-6.302,3.483-10.698c0.661-4.393,0.996-9.827,0.996-16.296V75h30.601v98.272c0,8.956-0.832,17.085-2.488,24.381
			c-1.66,7.301-4.564,13.521-8.708,18.659c-4.148,5.144-9.621,9.082-16.42,11.818C276.435,230.867,267.976,232.235,257.861,232.235z
			"/>
		<path fill="#445466" d="M336.23,229.001V75h93.296v25.376h-62.695v34.582h54.485v25.377h-54.485v43.29H435v25.376H336.23z"/>
	</g>
	<g>
		<path fill="#4DB886" d="M612.702,899.41c5.132,0,9.398-0.536,12.795-1.614c3.394-1.076,6.086-2.566,8.074-4.473
			c1.987-1.902,3.354-4.057,4.1-6.459c0.745-2.399,1.118-4.846,1.118-7.33c0-3.144-0.912-5.962-2.732-8.446
			c-1.825-2.484-4.144-4.678-6.958-6.584c-2.817-1.902-5.962-3.642-9.44-5.218c-3.478-1.572-6.956-3.021-10.435-4.348
			c-4.64-1.653-9.441-3.561-14.41-5.715c-4.969-2.149-9.484-4.883-13.541-8.198c-4.06-3.312-7.414-7.411-10.062-12.299
			c-2.651-4.883-3.976-10.971-3.976-18.26c0-14.411,4.678-25.672,14.037-33.789c9.355-8.113,22.237-12.174,38.635-12.174
			c9.44,0,17.679,1.078,24.72,3.229c7.038,2.154,12.958,4.558,17.765,7.204l-8.944,23.603c-4.143-2.316-8.738-4.305-13.789-5.962
			c-5.054-1.653-10.893-2.484-17.516-2.484c-16.233,0-24.347,5.881-24.347,17.64c0,2.98,0.826,5.59,2.484,7.826
			c1.653,2.235,3.766,4.224,6.335,5.962c2.565,1.74,5.466,3.273,8.695,4.597c3.229,1.327,6.417,2.569,9.565,3.727
			c4.802,1.825,9.813,3.851,15.03,6.088c5.218,2.235,10.02,5.217,14.411,8.943c4.387,3.727,7.988,8.365,10.807,13.913
			c2.814,5.551,4.224,12.547,4.224,20.994c0,14.409-4.682,25.551-14.037,33.415c-9.359,7.87-23.563,11.802-42.608,11.802
			c-12.757,0-22.942-1.366-30.56-4.1c-7.619-2.732-13.335-5.256-17.143-7.577l8.944-24.845c4.472,2.651,9.813,5.136,16.024,7.454
			C596.18,898.253,603.758,899.41,612.702,899.41z"/>
		<path fill="#4DB886" d="M736.926,899.41c5.132,0,9.398-0.536,12.795-1.614c3.394-1.076,6.086-2.566,8.075-4.473
			c1.986-1.902,3.354-4.057,4.099-6.459c0.745-2.399,1.118-4.846,1.118-7.33c0-3.144-0.912-5.962-2.732-8.446
			c-1.825-2.484-4.144-4.678-6.958-6.584c-2.817-1.902-5.962-3.642-9.44-5.218c-3.478-1.572-6.956-3.021-10.435-4.348
			c-4.64-1.653-9.441-3.561-14.41-5.715c-4.969-2.149-9.484-4.883-13.541-8.198c-4.06-3.312-7.414-7.411-10.062-12.299
			c-2.651-4.883-3.975-10.971-3.975-18.26c0-14.411,4.678-25.672,14.036-33.789c9.356-8.113,22.237-12.174,38.635-12.174
			c9.44,0,17.679,1.078,24.72,3.229c7.038,2.154,12.959,4.558,17.765,7.204l-8.944,23.603c-4.143-2.316-8.738-4.305-13.789-5.962
			c-5.054-1.653-10.893-2.484-17.516-2.484c-16.233,0-24.347,5.881-24.347,17.64c0,2.98,0.826,5.59,2.484,7.826
			c1.653,2.235,3.766,4.224,6.335,5.962c2.565,1.74,5.466,3.273,8.695,4.597c3.229,1.327,6.418,2.569,9.565,3.727
			c4.802,1.825,9.813,3.851,15.03,6.088c5.218,2.235,10.02,5.217,14.411,8.943c4.387,3.727,7.988,8.365,10.807,13.913
			c2.814,5.551,4.224,12.547,4.224,20.994c0,14.409-4.682,25.551-14.037,33.415c-9.359,7.87-23.563,11.802-42.608,11.802
			c-12.757,0-22.942-1.366-30.56-4.1c-7.619-2.732-13.335-5.256-17.143-7.577l8.944-24.845c4.472,2.651,9.813,5.136,16.024,7.454
			C720.403,898.253,727.981,899.41,736.926,899.41z"/>
		<path fill="#4DB886" d="M856.677,766.242c8.777,0,16.728,0.994,23.852,2.982c7.119,1.986,13.25,5.054,18.385,9.191
			c5.133,4.143,9.068,9.403,11.801,15.776c2.733,6.379,4.1,13.875,4.1,22.485c0,8.943-1.824,17.062-5.465,24.348
			c-3.646,7.291-9.689,12.837-18.138,16.646c2.814,4.309,5.796,9.068,8.944,14.285c3.145,5.217,6.211,10.684,9.193,16.396
			c2.98,5.716,5.838,11.43,8.57,17.145c2.733,5.714,5.094,11.141,7.081,16.272h-32.05c-3.812-9.938-8.241-19.503-13.292-28.695
			c-5.054-9.192-10.478-18.51-16.272-27.95h-15.9v56.646h-30.56V770.218c2.981-0.66,6.25-1.281,9.813-1.863
			c3.56-0.579,7.162-0.994,10.808-1.242c3.641-0.249,7.119-0.454,10.435-0.621C851.293,766.328,854.192,766.242,856.677,766.242z
			 M883.758,816.429c0-8.113-2.484-14.075-7.454-17.889c-4.969-3.808-11.514-5.714-19.627-5.714c-1.161,0-2.569,0.043-4.223,0.124
			c-1.658,0.086-3.315,0.291-4.969,0.621v46.212h6.707c10.436,0,17.97-2.026,22.609-6.088
			C881.437,829.639,883.758,823.883,883.758,816.429z"/>
	</g>
	<g>
		<path fill="#FFFFFF" stroke="#445466" stroke-width="3" stroke-miterlimit="10" d="M244.478,843.036
			c4.805-4.743,8.297-9.184,10.468-13.323c2.169-4.129,3.297-7.999,3.373-11.597c0.08-3.596-0.658-6.851-2.209-9.763
			c-1.549-2.904-3.489-5.512-5.814-7.809c-2.945-2.908-6.439-4.669-10.469-5.281c-4.035-0.609-8.258-0.498-12.678,0.344
			c-4.421,0.845-8.993,2.144-13.725,3.902c-4.728,1.764-9.342,3.638-13.841,5.629c-5.892,2.761-12.173,5.438-18.843,8.039
			c-6.665,2.605-13.452,4.253-20.353,4.938c-6.903,0.694-13.881,0.003-20.936-2.068c-7.055-2.063-13.994-6.468-20.82-13.206
			c-13.491-13.323-19.656-28.056-18.492-44.215c1.162-16.149,9.419-31.813,24.773-46.971c8.838-8.729,17.561-15.347,26.168-19.868
			c8.608-4.516,16.4-7.768,23.379-9.762l13.725,30.091c-6.049,1.683-12.211,4.097-18.493,7.233
			c-6.281,3.143-12.524,7.774-18.726,13.897c-15.199,15.008-17.289,27.946-6.281,38.814c2.793,2.759,6.009,4.405,9.654,4.942
			c3.643,0.536,7.48,0.419,11.516-0.347c4.03-0.766,8.181-2.028,12.444-3.793c4.266-1.757,8.415-3.555,12.444-5.396
			c6.205-2.753,12.794-5.513,19.773-8.269c6.979-2.755,14.266-4.438,21.865-5.053c7.597-0.61,15.314,0.347,23.146,2.869
			c7.833,2.53,15.702,7.694,23.611,15.506c13.492,13.321,19.541,27.947,18.145,43.869c-1.396,15.929-11.014,32.695-28.845,50.303
			c-11.944,11.793-22.759,19.947-32.452,24.46c-9.691,4.518-17.404,7.468-23.145,8.845l-14.888-31.237
			c6.669-1.685,13.997-4.325,21.982-7.924C227.926,857.242,236.104,851.306,244.478,843.036z"/>
		<path fill="#FFFFFF" stroke="#445466" stroke-width="3" stroke-miterlimit="10" d="M340.317,789.748l-23.728-23.427l31.404-31.007
			l-96.538-95.322l-31.404,31.007l-23.728-23.427l91.422-90.267l23.727,23.429l-31.172,30.778l96.538,95.32l31.17-30.781
			l23.728,23.431L340.317,789.748z"/>
		<path fill="#FFFFFF" stroke="#445466" stroke-width="3" stroke-miterlimit="10" d="M337.527,508.153
			c4.34,2.146,9.885,4.938,16.631,8.386c6.747,3.444,13.997,7.158,21.75,11.137c7.756,3.985,15.585,8.04,23.494,12.175
			c7.911,4.134,15.273,7.888,22.1,11.254c-3.875-7.498-7.869-15.27-11.98-23.311c-4.111-8.039-8.061-15.772-11.864-23.202
			c-3.798-7.424-7.403-14.35-10.816-20.785c-3.413-6.428-6.129-11.863-8.143-16.31l23.728-23.427
			c13.645,11.334,26.946,22.397,39.894,33.189c12.951,10.8,25.629,21.633,38.035,32.499c12.408,10.877,24.772,21.938,37.101,33.192
			c12.331,11.254,24.85,22.856,37.568,34.797l-26.284,25.955L418.246,491.846l43.266,77.635l-20.936,20.673l-77.927-43.412
			l113.054,109.331l-26.287,25.954c-11.318-12.092-23.068-24.689-35.241-37.783c-12.173-13.09-24.233-26.147-36.173-39.161
			c-11.943-13.014-23.378-25.76-34.312-38.245c-10.934-12.475-20.895-24.227-29.891-35.256L337.527,508.153z"/>
		<path fill="#FFFFFF" stroke="#445466" stroke-width="3" stroke-miterlimit="10" d="M466.862,377.231
			c18.297-18.066,36.248-28.361,53.85-30.891c17.604-2.522,34.935,4.632,51.992,21.476c17.217,16.996,24.578,34.301,22.099,51.909
			c-2.484,17.609-13.024,35.601-31.637,53.975l-10.235,10.107l48.617,48.003l-28.612,28.252l-142.13-140.337
			c2.175-3.367,4.769-7.006,7.794-10.911c3.023-3.904,6.201-7.73,9.537-11.483c3.334-3.752,6.629-7.386,9.887-10.911
			C461.279,382.903,464.224,379.838,466.862,377.231z M495.011,398.593c-1.71,1.688-4.033,4.06-6.981,7.12
			c-2.942,3.066-5.117,5.592-6.512,7.582l46.523,45.937l11.632-11.484c9.147-9.033,14.227-17.646,15.235-25.84
			c1.013-8.19-2.908-16.652-11.746-25.381c-8.375-8.268-16.597-11.864-24.659-10.794
			C510.439,386.805,502.603,391.093,495.011,398.593z"/>
		<path fill="#FFFFFF" stroke="#445466" stroke-width="3" stroke-miterlimit="10" d="M783.69,351.968l-90.487,89.347
			L549.209,299.139l28.847-28.481l120.264,118.747l61.643-60.867L783.69,351.968z"/>
		<path fill="#FFFFFF" stroke="#445466" stroke-width="3" stroke-miterlimit="10" d="M807.651,328.309L663.657,186.133L750.891,100
			l23.727,23.43l-58.618,57.879l32.333,31.928l50.942-50.3l23.729,23.428l-50.943,50.3l40.475,39.966l63.738-62.935L900,237.124
			L807.651,328.309z"/>
	</g>
</g>
</svg>
